<?xml version="1.0" encoding="UTF-8"?>
<svg version="1.1" xmlns="http://www.w3.org/2000/svg" width="150" height="150">
<path d="M0 0 C5.51770819 -0.05243862 11.03250618 -0.06396454 16.55029297 -0.01660156 C18.67019994 -0.00223504 20.79023868 -0.0107307 22.91015625 -0.0234375 C28.21906417 0.11316598 31.95172404 0.26020612 35.875 4.0625 C36.94668399 5.35060679 37.98881052 6.66387817 39 8 C40.05364174 9.23676838 41.11652058 10.46571441 42.1875 11.6875 C42.75855469 12.35136719 43.32960937 13.01523438 43.91796875 13.69921875 C46.51477808 16.56886358 49.24711156 19.28099326 52 22 C55.26384204 25.22396615 58.46830253 28.43517979 61.4375 31.9375 C65.11987221 36.27129923 69.17620102 40.20848515 73.22216797 44.19824219 C76.86837835 47.81160383 80.30750406 51.51353951 83.53515625 55.51171875 C85.20269103 57.20593408 86.83327149 58.05409487 89 59 C89.77601562 58.33355469 90.55203125 57.66710937 91.3515625 56.98046875 C97.25198847 51.93707757 103.20483168 46.97873063 109.3125 42.1875 C109.86180176 41.75655029 110.41110352 41.32560059 110.97705078 40.8815918 C111.51700684 40.46047119 112.05696289 40.03935059 112.61328125 39.60546875 C113.15033691 39.17492187 113.68739258 38.744375 114.24072266 38.30078125 C116 37 116 37 118.16162109 35.77734375 C121.62586069 33.68014105 123.65454827 32.29338705 124.7277832 28.27514648 C125.01150101 25.03262088 125.05749212 21.87905402 125 18.625 C125.01160156 17.50738281 125.02320313 16.38976562 125.03515625 15.23828125 C125.0586431 12.4903199 125.04582407 9.747535 125 7 C115.88335849 5.28327662 105.88589868 3.79244647 97.78466797 9.11083984 C91.57435202 14.23194552 86.29426694 20.43377463 81.20629883 26.63989258 C78.97476384 29.02699546 76.8718915 30.47331144 74 32 C75.50006391 28.55220914 77.50409262 26.17639467 80.0625 23.4375 C84.13473609 18.99863173 87.98275795 14.42817799 91.76171875 9.73828125 C92.50035156 8.83464844 93.23898438 7.93101563 94 7 C94.3393457 6.38165283 94.67869141 5.76330566 95.02832031 5.1262207 C96.5127436 2.77251105 97.6339026 1.50118493 100 0 C105.48142394 -0.87759725 110.84527459 -0.66005675 116.375 -0.4375 C117.88925114 -0.40235642 119.40358038 -0.37042271 120.91796875 -0.34179688 C124.61361173 -0.26497324 128.30630774 -0.14435921 132 0 C132.17406614 4.42893117 132.30053094 8.85601247 132.38452148 13.28735352 C132.41955689 14.79193835 132.46720379 16.29628769 132.52807617 17.80004883 C133.01997489 30.2711281 133.01997489 30.2711281 130.53588867 34.48168945 C128.78055673 36.25006007 127.0635956 37.61327673 125 39 C123.8025068 40.00909215 122.61381078 41.02879312 121.4375 42.0625 C120.44556641 42.91521484 120.44556641 42.91521484 119.43359375 43.78515625 C115.53538029 47.3329685 111.86965577 51.11046485 108.16308594 54.85644531 C103.93787327 59.10916886 99.59485194 63.14668036 95 67 C94.67 67.33 94.34 67.66 94 68 C92.46659253 68.06909257 90.92993342 68.0676143 89.39526367 68.03759766 C88.41301315 68.02072906 87.43076263 68.00386047 86.41874695 67.98648071 C85.34599014 67.9625827 84.27323334 67.93868469 83.16796875 67.9140625 C82.06584549 67.89282318 80.96372223 67.87158386 79.82820129 67.84970093 C77.48348072 67.80330154 75.13880928 67.75436302 72.79418945 67.703125 C69.24114697 67.62616205 65.68802069 67.55851559 62.13476562 67.4921875 C59.85415513 67.44587712 57.57355569 67.39901861 55.29296875 67.3515625 C54.24247849 67.33171295 53.19198822 67.3118634 52.10966492 67.29141235 C46.89295012 67.17253775 41.68086657 66.97993314 36.47216797 66.66503906 C35.51398163 66.61011292 34.55579529 66.55518677 33.568573 66.49859619 C28.99738422 65.61126407 26.71878948 62.64853676 23.9375 59.125 C22.75973193 57.74965606 21.58002357 56.37597145 20.3984375 55.00390625 C19.82834961 54.32344238 19.25826172 53.64297852 18.67089844 52.94189453 C16.27390822 50.1561464 13.6954311 47.62690275 11.0625 45.0625 C9.35347156 43.39680667 7.66732277 41.70743881 6 40 C5.38817871 39.454646 4.77635742 38.90929199 4.14599609 38.34741211 C0.12206614 34.43285572 -1.45667939 31.66662994 -1.71875 25.99609375 C-1.68188132 23.8089909 -1.60814264 21.62223874 -1.5 19.4375 C-1.47679688 18.33986328 -1.45359375 17.24222656 -1.4296875 16.11132812 C-1.285404 10.67118446 -0.92338458 5.36332543 0 0 Z " fill="#101010" transform="translate(18,82)"/>
<path d="M0 0 C1.03616455 -0.00233643 2.0723291 -0.00467285 3.13989258 -0.00708008 C8.77898986 0.01718009 14.41763205 0.05424459 20.05645752 0.11322021 C22.31742695 0.13363285 24.57831671 0.14492452 26.83935547 0.15478516 C30.79482944 0.17433898 34.74918922 0.22214893 38.7041626 0.28741455 C40.25383131 0.30924886 41.80364022 0.3227926 43.35345459 0.32781982 C45.54788586 0.33709498 47.73971024 0.37783731 49.93359375 0.42578125 C51.1966333 0.4414917 52.45967285 0.45720215 53.76098633 0.47338867 C58.31167297 1.33928544 60.00031356 2.86012489 63.2265625 6.1328125 C63.2265625 6.7928125 63.2265625 7.4528125 63.2265625 8.1328125 C63.8865625 8.1328125 64.5465625 8.1328125 65.2265625 8.1328125 C66.62133789 9.61914062 66.62133789 9.61914062 68.26171875 11.6640625 C70.90450257 14.79401751 73.56515862 17.28011518 76.84765625 19.7265625 C89.7298852 29.86912003 89.7298852 29.86912003 91.04833984 38.09082031 C92.00341358 47.39981563 91.22553442 56.85859629 90.2265625 66.1328125 C60.9085139 68.90671812 60.9085139 68.90671812 52.78515625 62.8515625 C49.39306638 59.67431508 46.5229727 56.17638281 43.85424805 52.37683105 C39.02483136 45.71872643 33.14777644 39.91253646 27.32421875 34.1328125 C26.6016539 33.4116626 25.87908905 32.6905127 25.1346283 31.94750977 C22.85513646 29.67355835 20.5721701 27.40313296 18.2890625 25.1328125 C16.73088744 23.57966015 15.17294257 22.02627683 13.61523438 20.47265625 C9.82166491 16.69003664 6.02524635 12.9102956 2.2265625 9.1328125 C-1.57049635 10.92184063 -4.50680484 13.32423995 -7.6484375 16.0703125 C-13.52698086 21.13117009 -19.55845274 25.95980051 -25.6796875 30.72265625 C-27.21109375 31.91568359 -27.21109375 31.91568359 -28.7734375 33.1328125 C-29.71574219 33.63425781 -30.65804688 34.13570312 -31.62890625 34.65234375 C-35.35486255 38.96196534 -34.55843783 44.38898996 -34.5859375 49.8828125 C-34.61107422 51.05714844 -34.63621094 52.23148438 -34.66210938 53.44140625 C-34.72100108 56.33887815 -34.75726719 59.23483855 -34.7734375 62.1328125 C-26.38689182 63.63539241 -16.43979191 64.76890832 -8.93591309 59.95367432 C0.19681254 52.94738065 7.82071483 43.88624321 15.2265625 35.1328125 C16.2165625 35.6278125 16.2165625 35.6278125 17.2265625 36.1328125 C16.68128906 36.72707031 16.13601562 37.32132813 15.57421875 37.93359375 C9.90384551 44.16615784 4.52015187 50.57927635 -0.7734375 57.1328125 C-2.43719451 59.17687534 -4.10520402 61.21739402 -5.7734375 63.2578125 C-6.8871875 64.62292969 -6.8871875 64.62292969 -8.0234375 66.015625 C-8.90621542 67.08362865 -9.79365981 68.15303481 -10.7734375 69.1328125 C-12.81052817 69.23279935 -14.85108295 69.26362236 -16.890625 69.265625 C-18.13714844 69.26691406 -19.38367188 69.26820312 -20.66796875 69.26953125 C-21.98152344 69.26566406 -23.29507812 69.26179688 -24.6484375 69.2578125 C-25.95425781 69.26167969 -27.26007812 69.26554687 -28.60546875 69.26953125 C-29.85457031 69.26824219 -31.10367187 69.26695313 -32.390625 69.265625 C-33.54159668 69.26449707 -34.69256836 69.26336914 -35.87841797 69.26220703 C-38.7734375 69.1328125 -38.7734375 69.1328125 -41.7734375 68.1328125 C-43.64487504 57.63219705 -46.09793762 43.83513044 -40.59155273 34.027771 C-33.85113746 24.43324155 -24.38318902 16.78689031 -15.35351562 9.42987061 C-13.17138939 7.63860189 -11.04832883 5.78360268 -8.9296875 3.91796875 C-8.32962891 3.39211182 -7.72957031 2.86625488 -7.11132812 2.32446289 C-4.49647499 -0.00456962 -3.65938631 0.00457015 0 0 Z " fill="#00FF80" transform="translate(41.7734375,-0.1328125)"/>
<path d="" fill="#090909" transform="translate(0,0)"/>
</svg>
