<?xml version="1.0" encoding="UTF-8"?>
<!DOCTYPE svg PUBLIC "-//W3C//DTD SVG 1.1//EN" "http://www.w3.org/Graphics/SVG/1.1/DTD/svg11.dtd">
<svg xmlns="http://www.w3.org/2000/svg" version="1.1" width="665px" height="234px" style="shape-rendering:geometricPrecision; text-rendering:geometricPrecision; image-rendering:optimizeQuality; fill-rule:evenodd; clip-rule:evenodd" xmlns:xlink="http://www.w3.org/1999/xlink">
<g><path style="opacity:0.965" fill="#00fe80" d="M 303.5,-0.5 C 313.167,-0.5 322.833,-0.5 332.5,-0.5C 354.996,0.33203 377.663,0.83203 400.5,1C 417.667,18.1667 434.833,35.3333 452,52.5C 452.5,69.1633 452.667,85.83 452.5,102.5C 436.163,102.667 419.83,102.5 403.5,102C 373.213,71.7128 343.046,41.5462 313,11.5C 294.093,26.7088 275.26,42.0421 256.5,57.5C 255.501,70.1492 255.168,82.8158 255.5,95.5C 268.504,95.6666 281.504,95.4999 294.5,95C 308.333,81.1667 322.167,67.3333 336,53.5C 335.602,55.6313 334.602,57.6313 333,59.5C 320.333,74.8333 307.667,90.1667 295,105.5C 278.577,106.492 262.077,106.825 245.5,106.5C 245.333,89.83 245.5,73.1633 246,56.5C 265.062,37.2711 284.228,18.2711 303.5,-0.5 Z"/></g>
<g><path style="opacity:0.928" fill="#bedfff" d="M -0.5,34.5 C 4.5,34.5 9.5,34.5 14.5,34.5C 14.3334,51.5033 14.5001,68.5033 15,85.5C 15.7427,90.4099 18.576,93.0765 23.5,93.5C 28.2004,92.2988 31.0337,89.2988 32,84.5C 32.4999,67.8367 32.6666,51.17 32.5,34.5C 37.5,34.5 42.5,34.5 47.5,34.5C 47.6666,51.5033 47.4999,68.5033 47,85.5C 45.7961,95.0336 40.6294,101.2 31.5,104C 15.2532,107.72 4.58654,101.887 -0.5,86.5C -0.5,69.1667 -0.5,51.8333 -0.5,34.5 Z"/></g>
<g><path style="opacity:0.95" fill="#bedfff" d="M 57.5,34.5 C 62.7616,34.1953 67.9283,34.5286 73,35.5C 78.0581,47.9498 83.3914,60.2832 89,72.5C 89.4999,59.8377 89.6666,47.1711 89.5,34.5C 94.5,34.5 99.5,34.5 104.5,34.5C 104.5,57.5 104.5,80.5 104.5,103.5C 99.456,103.827 94.456,103.494 89.5,102.5C 83.7249,89.95 78.2249,77.2834 73,64.5C 72.5001,77.4957 72.3334,90.4957 72.5,103.5C 67.5,103.5 62.5,103.5 57.5,103.5C 57.5,80.5 57.5,57.5 57.5,34.5 Z"/></g>
<g><path style="opacity:0.967" fill="#bedeff" d="M 118.5,34.5 C 132.5,34.5 146.5,34.5 160.5,34.5C 160.5,38.1667 160.5,41.8333 160.5,45.5C 155.833,45.5 151.167,45.5 146.5,45.5C 146.5,61.1667 146.5,76.8333 146.5,92.5C 151.167,92.5 155.833,92.5 160.5,92.5C 160.5,96.1667 160.5,99.8333 160.5,103.5C 146.5,103.5 132.5,103.5 118.5,103.5C 118.5,99.8333 118.5,96.1667 118.5,92.5C 122.833,92.5 127.167,92.5 131.5,92.5C 131.5,76.8333 131.5,61.1667 131.5,45.5C 127.167,45.5 122.833,45.5 118.5,45.5C 118.5,41.8333 118.5,38.1667 118.5,34.5 Z"/></g>
<g><path style="opacity:0.978" fill="#bedfff" d="M 168.5,34.5 C 187.5,34.5 206.5,34.5 225.5,34.5C 225.5,38.1667 225.5,41.8333 225.5,45.5C 218.5,45.5 211.5,45.5 204.5,45.5C 204.5,64.8333 204.5,84.1667 204.5,103.5C 199.5,103.5 194.5,103.5 189.5,103.5C 189.5,84.1667 189.5,64.8333 189.5,45.5C 182.5,45.5 175.5,45.5 168.5,45.5C 168.5,41.8333 168.5,38.1667 168.5,34.5 Z"/></g>
<g><path style="opacity:0.944" fill="#bedfff" d="M 515.5,125.5 C 527.991,123.377 537.824,127.377 545,137.5C 546.772,141.313 547.605,145.313 547.5,149.5C 542.5,149.5 537.5,149.5 532.5,149.5C 532.003,138.747 526.67,135.247 516.5,139C 514.383,140.731 512.883,142.898 512,145.5C 510,156.5 510,167.5 512,178.5C 517.122,187.546 523.455,188.546 531,181.5C 531.977,179.26 532.477,176.927 532.5,174.5C 537.5,174.5 542.5,174.5 547.5,174.5C 546.96,185.873 541.294,193.373 530.5,197C 511.541,200.68 500.041,193.18 496,174.5C 495.105,164.439 495.438,154.439 497,144.5C 500.044,134.958 506.21,128.625 515.5,125.5 Z"/></g>
<g><path style="opacity:0.943" fill="#bedfff" d="M 573.5,125.5 C 591.25,123.454 602.084,131.121 606,148.5C 606.87,158.885 606.536,169.218 605,179.5C 599.211,194.316 588.378,200.149 572.5,197C 562.718,193.55 556.884,186.717 555,176.5C 554.333,166.5 554.333,156.5 555,146.5C 557.206,135.805 563.373,128.805 573.5,125.5 Z M 577.5,137.5 C 586.008,137.506 590.508,141.839 591,150.5C 591.881,159.562 591.548,168.562 590,177.5C 587.07,185.049 581.903,187.216 574.5,184C 572.348,181.531 570.848,178.698 570,175.5C 569.333,166.167 569.333,156.833 570,147.5C 570.846,142.76 573.346,139.426 577.5,137.5 Z"/></g>
<g><path style="opacity:0.977" fill="#bfdfff" d="M 420.5,233.5 C 417.5,233.5 414.5,233.5 411.5,233.5C 382.316,232.493 352.983,231.326 323.5,230C 306.667,212.5 289.833,195 273,177.5C 272.611,160.83 272.778,144.163 273.5,127.5C 290.248,127.881 306.915,128.714 323.5,130C 352.679,160.678 382.012,191.178 411.5,221.5C 430.682,206.741 449.682,191.741 468.5,176.5C 469.268,163.828 469.934,151.161 470.5,138.5C 457.514,137.506 444.514,137.339 431.5,138C 417.297,151.705 402.964,165.205 388.5,178.5C 402.412,161.246 416.745,144.246 431.5,127.5C 433.167,127.167 434.833,126.833 436.5,126.5C 451.063,127.088 465.563,127.755 480,128.5C 480.828,144.861 480.495,161.194 479,177.5C 459.605,196.398 440.105,215.065 420.5,233.5 Z"/></g>
<g><path style="opacity:0.937" fill="#bedfff" d="M 664.5,126.5 C 664.5,149.833 664.5,173.167 664.5,196.5C 659.833,196.5 655.167,196.5 650.5,196.5C 650.667,181.83 650.5,167.163 650,152.5C 648,159.167 646,165.833 644,172.5C 641,173.833 638,173.833 635,172.5C 632.845,165.545 630.845,158.545 629,151.5C 629.166,166.489 629.333,181.489 629.5,196.5C 624.833,196.5 620.167,196.5 615.5,196.5C 615.5,173.167 615.5,149.833 615.5,126.5C 621.537,126.171 627.537,126.504 633.5,127.5C 635.488,134.451 637.321,141.451 639,148.5C 642.067,141.464 644.233,134.13 645.5,126.5C 651.833,126.5 658.167,126.5 664.5,126.5 Z"/></g>
<g><path style="opacity:0.031" fill="#bedffe" d="M 388.5,178.5 C 387.833,179.167 387.833,179.167 388.5,178.5 Z"/></g>
</svg>
