<?xml version="1.0" encoding="UTF-8"?>
<!DOCTYPE svg PUBLIC "-//W3C//DTD SVG 1.1//EN" "http://www.w3.org/Graphics/SVG/1.1/DTD/svg11.dtd">
<svg xmlns="http://www.w3.org/2000/svg" version="1.1" width="665px" height="234px" style="shape-rendering:geometricPrecision; text-rendering:geometricPrecision; image-rendering:optimizeQuality; fill-rule:evenodd; clip-rule:evenodd" xmlns:xlink="http://www.w3.org/1999/xlink">
<g><path style="opacity:0.965" fill="#00fe80" d="M 303.5,-0.5 C 313.167,-0.5 322.833,-0.5 332.5,-0.5C 354.996,0.33203 377.663,0.83203 400.5,1C 417.667,18.1667 434.833,35.3333 452,52.5C 452.5,69.1633 452.667,85.83 452.5,102.5C 436.163,102.667 419.83,102.5 403.5,102C 373.213,71.7128 343.046,41.5462 313,11.5C 294.093,26.7088 275.26,42.0421 256.5,57.5C 255.501,70.1492 255.168,82.8158 255.5,95.5C 268.504,95.6666 281.504,95.4999 294.5,95C 308.333,81.1667 322.167,67.3333 336,53.5C 335.602,55.6313 334.602,57.6313 333,59.5C 320.333,74.8333 307.667,90.1667 295,105.5C 278.577,106.492 262.077,106.825 245.5,106.5C 245.333,89.83 245.5,73.1633 246,56.5C 265.062,37.2711 284.228,18.2711 303.5,-0.5 Z"/></g>
<g><path style="opacity:0.99" fill="#001b38" d="M -0.5,34.5 C 4.5,34.5 9.5,34.5 14.5,34.5C 14.3334,51.5033 14.5001,68.5033 15,85.5C 17.0413,93.1049 21.5413,95.1049 28.5,91.5C 30.7025,89.7046 31.8692,87.3712 32,84.5C 32.4999,67.8367 32.6666,51.17 32.5,34.5C 37.5,34.5 42.5,34.5 47.5,34.5C 47.6666,51.17 47.4999,67.8367 47,84.5C 46.258,94.57 41.0913,101.07 31.5,104C 15.2532,107.72 4.58654,101.887 -0.5,86.5C -0.5,69.1667 -0.5,51.8333 -0.5,34.5 Z"/></g>
<g><path style="opacity:0.991" fill="#001b38" d="M 57.5,34.5 C 62.7616,34.1953 67.9283,34.5286 73,35.5C 78.3333,48.1667 83.6667,60.8333 89,73.5C 89.4999,60.5043 89.6666,47.5043 89.5,34.5C 94.5,34.5 99.5,34.5 104.5,34.5C 104.5,57.5 104.5,80.5 104.5,103.5C 99.456,103.827 94.456,103.494 89.5,102.5C 84.0973,89.7921 78.5973,77.1254 73,64.5C 72.5001,77.4957 72.3334,90.4957 72.5,103.5C 67.5,103.5 62.5,103.5 57.5,103.5C 57.5,80.5 57.5,57.5 57.5,34.5 Z"/></g>
<g><path style="opacity:0.998" fill="#001b38" d="M 118.5,34.5 C 132.5,34.5 146.5,34.5 160.5,34.5C 160.5,38.1667 160.5,41.8333 160.5,45.5C 155.833,45.5 151.167,45.5 146.5,45.5C 146.5,61.1667 146.5,76.8333 146.5,92.5C 151.167,92.5 155.833,92.5 160.5,92.5C 160.5,96.1667 160.5,99.8333 160.5,103.5C 146.5,103.5 132.5,103.5 118.5,103.5C 118.5,99.8333 118.5,96.1667 118.5,92.5C 122.833,92.5 127.167,92.5 131.5,92.5C 131.5,76.8333 131.5,61.1667 131.5,45.5C 127.167,45.5 122.833,45.5 118.5,45.5C 118.5,41.8333 118.5,38.1667 118.5,34.5 Z"/></g>
<g><path style="opacity:0.997" fill="#001b38" d="M 168.5,34.5 C 187.5,34.5 206.5,34.5 225.5,34.5C 225.5,38.1667 225.5,41.8333 225.5,45.5C 218.5,45.5 211.5,45.5 204.5,45.5C 204.5,64.8333 204.5,84.1667 204.5,103.5C 199.5,103.5 194.5,103.5 189.5,103.5C 189.5,84.1667 189.5,64.8333 189.5,45.5C 182.5,45.5 175.5,45.5 168.5,45.5C 168.5,41.8333 168.5,38.1667 168.5,34.5 Z"/></g>
<g><path style="opacity:0.98" fill="#001b38" d="M 573.5,125.5 C 591.289,123.469 602.123,131.135 606,148.5C 606.667,157.167 606.667,165.833 606,174.5C 599.879,196.143 586.379,202.643 565.5,194C 560.083,189.334 556.583,183.501 555,176.5C 554.333,166.833 554.333,157.167 555,147.5C 556.744,136.294 562.91,128.961 573.5,125.5 Z M 576.5,137.5 C 585.056,136.882 589.889,140.882 591,149.5C 591.667,157.5 591.667,165.5 591,173.5C 589.702,182.821 584.535,186.654 575.5,185C 572.366,182.612 570.533,179.446 570,175.5C 569.333,166.167 569.333,156.833 570,147.5C 570.949,143.243 573.115,139.909 576.5,137.5 Z"/></g>
<g><path style="opacity:0.98" fill="#000d1b" d="M 420.5,233.5 C 417.5,233.5 414.5,233.5 411.5,233.5C 382.316,232.493 352.983,231.326 323.5,230C 306.667,212.5 289.833,195 273,177.5C 272.611,160.83 272.778,144.163 273.5,127.5C 290.248,127.881 306.915,128.714 323.5,130C 352.679,160.678 382.012,191.178 411.5,221.5C 430.682,206.741 449.682,191.741 468.5,176.5C 469.268,163.828 469.934,151.161 470.5,138.5C 457.514,137.506 444.514,137.339 431.5,138C 417.297,151.705 402.964,165.205 388.5,178.5C 402.412,161.246 416.745,144.246 431.5,127.5C 433.167,127.167 434.833,126.833 436.5,126.5C 451.063,127.088 465.563,127.755 480,128.5C 480.828,144.861 480.495,161.194 479,177.5C 459.605,196.398 440.105,215.065 420.5,233.5 Z"/></g>
<g><path style="opacity:0.981" fill="#001b38" d="M 515.5,125.5 C 526.293,123.817 535.46,126.817 543,134.5C 545.897,139.088 547.397,144.088 547.5,149.5C 542.5,149.5 537.5,149.5 532.5,149.5C 532.003,138.747 526.67,135.247 516.5,139C 511.163,145.508 509.163,153.008 510.5,161.5C 510.474,167.221 510.974,172.888 512,178.5C 515.196,185.344 520.362,187.51 527.5,185C 531.192,182.45 532.858,178.95 532.5,174.5C 537.5,174.5 542.5,174.5 547.5,174.5C 546.985,185.853 541.318,193.353 530.5,197C 511.535,200.673 500.035,193.173 496,174.5C 495.135,164.448 495.469,154.448 497,144.5C 500.044,134.958 506.21,128.625 515.5,125.5 Z"/></g>
<g><path style="opacity:0.991" fill="#001b38" d="M 664.5,126.5 C 664.5,149.833 664.5,173.167 664.5,196.5C 659.833,196.5 655.167,196.5 650.5,196.5C 650.667,181.83 650.5,167.163 650,152.5C 647.845,158.786 645.845,165.12 644,171.5C 641.275,173.758 638.275,174.091 635,172.5C 632.845,165.545 630.845,158.545 629,151.5C 629.166,166.489 629.333,181.489 629.5,196.5C 624.833,196.5 620.167,196.5 615.5,196.5C 615.5,173.167 615.5,149.833 615.5,126.5C 621.537,126.171 627.537,126.504 633.5,127.5C 635.346,134.55 637.346,141.55 639.5,148.5C 641.759,141.292 644.092,134.126 646.5,127C 652.491,126.501 658.491,126.334 664.5,126.5 Z"/></g>
<g><path style="opacity:0.031" fill="#000000" d="M 388.5,178.5 C 387.833,179.167 387.833,179.167 388.5,178.5 Z"/></g>
</svg>
